<?xml version="1.0" encoding="UTF-8"?><svg id="a" xmlns="http://www.w3.org/2000/svg" viewBox="0 0 119.39 119.39"><path d="m105.22,0H0v105.22c5.53,5.53,8.64,8.64,14.17,14.17h105.22V14.17L105.22,0ZM21.83,20.91c0-.34.11-.63.33-.86.22-.24.52-.36.89-.36h7.6c.34,0,.63.12.87.35.24.24.36.52.36.86v11.98c0,.34.11.62.33.86.22.24.51.35.88.35h10.41c.34,0,.62-.12.86-.35.24-.24.35-.52.35-.86v-11.98c0-.34.11-.62.33-.86.22-.24.52-.35.89-.35h7.61c.34,0,.63.12.86.36.24.24.36.52.36.86v34.7c0,.34-.12.63-.36.86s-.52.36-.86.36h-7.61c-.37,0-.67-.12-.89-.36-.22-.24-.33-.52-.33-.86v-10.86c0-.34-.12-.63-.35-.86-.24-.24-.52-.36-.86-.36h-10.41c-.37,0-.67.12-.88.36-.22.24-.33.52-.33.86v10.86c0,.34-.12.63-.36.86-.24.24-.53.36-.87.36h-7.6c-.37,0-.67-.12-.89-.36-.22-.24-.33-.52-.33-.86V20.91Zm33.89,80.22c-.07.34-.29.51-.66.51h-10.5c-.37,0-.75-.08-1.14-.25-.39-.17-.68-.39-.89-.66l-9.84-11.01c-.24-.27-.43-.37-.58-.3-.15.07-.23.27-.23.61v10.4c0,.34-.12.63-.36.86-.24.24-.52.36-.86.36h-7.61c-.37,0-.67-.12-.89-.36-.22-.24-.33-.52-.33-.86v-34.7c0-.34.11-.63.33-.86.22-.24.52-.35.89-.35h7.61c.34,0,.63.12.86.35.24.24.36.52.36.86v11.67c0,.34.07.53.2.58.13.05.3-.06.51-.33l9.13-12.12c.2-.27.49-.5.86-.68.37-.19.74-.28,1.12-.28h9.69c.37,0,.61.16.71.48.1.32.05.62-.15.89l-13.34,16.69c-.2.27-.3.58-.28.94.02.35.14.65.38.89,1.15,1.25,2.37,2.55,3.65,3.91,1.28,1.35,2.56,2.71,3.83,4.08,1.27,1.37,2.52,2.72,3.75,4.06,1.23,1.34,2.41,2.58,3.53,3.73.24.27.32.58.25.91Zm41.52-28.51c0,.34-.12.63-.36.86-.24.24-.52.36-.86.36h-15.78c-.34,0-.63.12-.86.35-.24.24-.36.52-.36.86v2.13c0,.34.12.63.36.86.24.24.52.36.86.36h13.75c.34,0,.63.12.86.36.24.24.36.52.36.86v7c0,.34-.12.63-.36.86-.24.24-.52.36-.86.36h-13.75c-.34,0-.63.12-.86.36s-.36.52-.36.86v1.93c0,.34.12.63.36.86.24.24.52.36.86.36h15.78c.34,0,.63.12.86.36.24.24.36.53.36.86v7c0,.34-.12.63-.36.86-.24.24-.52.36-.86.36h-25.82c-.34,0-.63-.12-.86-.36-.24-.24-.36-.52-.36-.86v-34.7c0-.34.12-.63.36-.86s.52-.35.86-.35h25.82c.34,0,.63.12.86.35.24.24.36.52.36.86v6.9Zm3.2-51.45l-12.68,20.54c-.17.3-.32.68-.46,1.12-.14.44-.2.83-.2,1.17v11.62c0,.34-.12.63-.35.86-.24.24-.52.36-.86.36h-7.62c-.34,0-.62-.12-.86-.36-.24-.24-.35-.52-.35-.86v-11.57c0-.34-.06-.74-.18-1.19-.12-.46-.26-.82-.43-1.09-2.03-3.48-4.1-6.9-6.21-10.25-2.11-3.35-4.22-6.8-6.32-10.35-.17-.3-.2-.62-.1-.94.1-.32.32-.48.66-.48h9.03c.34,0,.68.1,1.04.3s.62.46.79.76l6.22,10.86c.17.27.37.41.61.41s.44-.14.61-.41l6.17-10.86c.17-.3.43-.56.79-.76.36-.2.7-.3,1.04-.3h9.13c.34,0,.58.12.74.36.15.24.09.59-.18,1.07Z" fill="#ffc835"/></svg>