<?xml version="1.0" encoding="UTF-8"?><svg id="a" xmlns="http://www.w3.org/2000/svg" viewBox="0 0 309.92 119.39"><path d="m105.22,0H0v105.22c5.53,5.53,8.64,8.64,14.17,14.17h105.22V14.17L105.22,0ZM21.83,20.91c0-.34.11-.63.33-.86.22-.24.52-.36.89-.36h7.6c.34,0,.63.12.87.35.24.24.36.52.36.86v11.98c0,.34.11.62.33.86.22.24.51.35.88.35h10.41c.34,0,.62-.12.86-.35.24-.24.35-.52.35-.86v-11.98c0-.34.11-.62.33-.86.22-.24.52-.35.89-.35h7.61c.34,0,.63.12.86.36.24.24.36.52.36.86v34.7c0,.34-.12.63-.36.86s-.52.36-.86.36h-7.61c-.37,0-.67-.12-.89-.36-.22-.24-.33-.52-.33-.86v-10.86c0-.34-.12-.63-.35-.86-.24-.24-.52-.36-.86-.36h-10.41c-.37,0-.67.12-.88.36-.22.24-.33.52-.33.86v10.86c0,.34-.12.63-.36.86-.24.24-.53.36-.87.36h-7.6c-.37,0-.67-.12-.89-.36-.22-.24-.33-.52-.33-.86V20.91Zm33.89,80.22c-.07.34-.29.51-.66.51h-10.5c-.37,0-.75-.08-1.14-.25-.39-.17-.68-.39-.89-.66l-9.84-11.01c-.24-.27-.43-.37-.58-.3-.15.07-.23.27-.23.61v10.4c0,.34-.12.63-.36.86-.24.24-.52.36-.86.36h-7.61c-.37,0-.67-.12-.89-.36-.22-.24-.33-.52-.33-.86v-34.7c0-.34.11-.63.33-.86.22-.24.52-.35.89-.35h7.61c.34,0,.63.12.86.35.24.24.36.52.36.86v11.67c0,.34.07.53.2.58.13.05.3-.06.51-.33l9.13-12.12c.2-.27.49-.5.86-.68.37-.19.74-.28,1.12-.28h9.69c.37,0,.61.16.71.48.1.32.05.62-.15.89l-13.34,16.69c-.2.27-.3.58-.28.94.02.35.14.65.38.89,1.15,1.25,2.37,2.55,3.65,3.91,1.28,1.35,2.56,2.71,3.83,4.08,1.27,1.37,2.52,2.72,3.75,4.06,1.23,1.34,2.41,2.58,3.53,3.73.24.27.32.58.25.91Zm41.52-28.51c0,.34-.12.63-.36.86-.24.24-.52.36-.86.36h-15.78c-.34,0-.63.12-.86.35-.24.24-.36.52-.36.86v2.13c0,.34.12.63.36.86.24.24.52.36.86.36h13.75c.34,0,.63.12.86.36.24.24.36.52.36.86v7c0,.34-.12.63-.36.86-.24.24-.52.36-.86.36h-13.75c-.34,0-.63.12-.86.36s-.36.52-.36.86v1.93c0,.34.12.63.36.86.24.24.52.36.86.36h15.78c.34,0,.63.12.86.36.24.24.36.53.36.86v7c0,.34-.12.63-.36.86-.24.24-.52.36-.86.36h-25.82c-.34,0-.63-.12-.86-.36-.24-.24-.36-.52-.36-.86v-34.7c0-.34.12-.63.36-.86s.52-.35.86-.35h25.82c.34,0,.63.12.86.35.24.24.36.52.36.86v6.9Zm3.2-51.45l-12.68,20.54c-.17.3-.32.68-.46,1.12-.14.44-.2.83-.2,1.17v11.62c0,.34-.12.63-.35.86-.24.24-.52.36-.86.36h-7.62c-.34,0-.62-.12-.86-.36-.24-.24-.35-.52-.35-.86v-11.57c0-.34-.06-.74-.18-1.19-.12-.46-.26-.82-.43-1.09-2.03-3.48-4.1-6.9-6.21-10.25-2.11-3.35-4.22-6.8-6.32-10.35-.17-.3-.2-.62-.1-.94.1-.32.32-.48.66-.48h9.03c.34,0,.68.1,1.04.3s.62.46.79.76l6.22,10.86c.17.27.37.41.61.41s.44-.14.61-.41l6.17-10.86c.17-.3.43-.56.79-.76.36-.2.7-.3,1.04-.3h9.13c.34,0,.58.12.74.36.15.24.09.59-.18,1.07Z" fill="#ffc835"/><rect x="307.16" y="103.41" width="2.76" height="15.76" fill="#231f20"/><rect x="304.39" y="103.41" width="1.38" height="15.76" fill="#231f20"/><rect x="300.24" y="103.41" width="1.38" height="15.76" fill="#231f20"/><rect x="291.95" y="103.41" width="2.76" height="15.76" fill="#231f20"/><rect x="286.42" y="103.41" width="1.38" height="15.76" fill="#231f20"/><rect x="283.65" y="103.41" width="1.38" height="15.76" fill="#231f20"/><rect x="276.74" y="103.41" width="2.76" height="15.76" fill="#231f20"/><rect x="272.59" y="103.41" width="2.76" height="15.76" fill="#231f20"/><rect x="265.68" y="103.41" width="5.53" height="15.76" fill="#231f20"/><rect x="261.53" y="103.41" width="2.76" height="15.76" fill="#231f20"/><rect x="254.62" y="103.41" width="1.38" height="15.76" fill="#231f20"/><rect x="250.47" y="103.41" width="1.38" height="15.76" fill="#231f20"/><rect x="247.71" y="103.41" width="1.38" height="15.76" fill="#231f20"/><rect x="243.56" y="103.41" width="2.76" height="15.76" fill="#231f20"/><rect x="239.41" y="103.41" width="1.38" height="15.76" fill="#231f20"/><rect x="231.12" y="103.41" width="2.76" height="15.76" fill="#231f20"/><rect x="226.97" y="103.41" width="2.76" height="15.76" fill="#231f20"/><rect x="221.44" y="103.41" width="2.76" height="15.76" fill="#231f20"/><rect x="217.3" y="103.41" width="1.38" height="15.76" fill="#231f20"/><rect x="210.38" y="103.41" width="1.38" height="15.76" fill="#231f20"/><rect x="206.24" y="103.41" width="2.76" height="15.76" fill="#231f20"/><rect x="202.09" y="103.41" width="1.38" height="15.76" fill="#231f20"/><rect x="192.41" y="103.41" width="5.53" height="15.76" fill="#231f20"/><rect x="189.65" y="103.41" width="1.38" height="15.76" fill="#231f20"/><rect x="186.88" y="103.41" width="1.38" height="15.76" fill="#231f20"/><rect x="182.73" y="103.41" width="1.38" height="15.76" fill="#231f20"/><rect x="174.44" y="103.41" width="5.53" height="15.76" fill="#231f20"/><rect x="171.67" y="103.41" width="1.38" height="15.76" fill="#231f20"/><rect x="168.91" y="103.41" width="1.38" height="15.76" fill="#231f20"/><rect x="160.61" y="103.41" width="5.53" height="15.76" fill="#231f20"/><rect x="156.47" y="103.41" width="1.38" height="15.76" fill="#231f20"/><rect x="153.7" y="103.41" width="1.38" height="15.76" fill="#231f20"/><rect x="145.41" y="103.41" width="2.76" height="15.76" fill="#231f20"/><rect x="139.88" y="103.41" width="2.76" height="15.76" fill="#231f20"/><rect x="131.58" y="103.41" width="4.15" height="15.76" fill="#231f20"/><rect x="128.82" y="103.41" width="1.38" height="15.76" fill="#231f20"/><rect x="124.67" y="103.41" width="2.76" height="15.76" fill="#231f20"/><path d="m309.92,70.88V26.19c0-2.14-2.68-3.2-4.22-1.67l-24.42,24.21c-.97.96-.93,2.51.08,3.42l24.42,20.47c1.58,1.42,4.14.34,4.14-1.75Z" fill="#ffc835"/><polygon points="124.39 0 124.39 3.23 124.39 8.44 124.39 95.39 124.39 98.62 127.29 98.62 127.29 0 124.39 0" fill="#231f20"/><rect x="128.82" width="1.38" height="98.62" fill="#231f20"/><path d="m309.02,94.85c-3.62-3.05-7.44-6.35-11.44-9.9-4.01-3.55-8.07-7.14-12.18-10.78-4.12-3.64-8.26-7.25-12.43-10.85-4.17-3.59-8.12-7.05-11.85-10.37-.77-.63-1.18-1.42-1.24-2.36-.06-.94.25-1.77.91-2.49L304.09,3.77c.66-.72.82-1.5.49-2.36-.33-.85-1.1-1.28-2.3-1.28h-31.44c-1.21,0-2.41.25-3.62.74-1.21.49-2.14,1.1-2.8,1.82l-29.63,32.2c-.66.72-1.21,1.01-1.65.88-.44-.13-.66-.65-.66-1.55V3.23c0-.9-.39-1.66-1.15-2.29-.77-.63-1.7-.94-2.8-.94h-25.94c-1.21,0-2.17.31-2.88.94-.72.63-1.07,1.39-1.07,2.28v31.82c0,.9-.39,1.66-1.15,2.28-.77.63-1.69.94-2.79.94h-33.78c-1.2,0-2.16-.31-2.87-.94-.71-.63-1.07-1.39-1.07-2.28V3.22c0-.89-.39-1.65-1.16-2.28-.77-.63-1.71-.94-2.81-.94h-21.43v98.62h21.43c1.1,0,2.04-.31,2.81-.94.77-.63,1.16-1.39,1.16-2.29v-28.83c0-.9.36-1.66,1.07-2.29.71-.63,1.67-.94,2.87-.94h33.78c1.09,0,2.02.32,2.79.94.76.63,1.15,1.39,1.15,2.29v28.83c0,.9.35,1.66,1.07,2.29.71.63,1.67.94,2.88.94h25.94c1.1,0,2.03-.31,2.8-.94.77-.63,1.15-1.39,1.15-2.29v-27.62c0-.9.25-1.44.74-1.62.49-.18,1.12.09,1.89.81l31.94,29.24c.66.72,1.62,1.3,2.88,1.75,1.26.45,2.49.67,3.7.67h34.08c1.21,0,1.92-.45,2.14-1.35.22-.9-.06-1.7-.82-2.43Z" fill="#231f20"/></svg>